{"accessors" : [{"bufferView" : 0, "byteOffset" : 0, "componentType" : 5123, "count" : 12276, "type" : "SCALAR", "max" : [2047], "min" : [0]}, {"bufferView" : 1, "byteOffset" : 0, "componentType" : 5126, "count" : 2048, "type" : "VEC3", "max" : [0.734183132648468, 0.9364899396896362, 1.279730200767517], "min" : [-0.9308416247367859, -1.0121022462844849, -1.0543131828308105], "name" : "POSITION"}, {"bufferView" : 1, "byteOffset" : 12, "componentType" : 5126, "count" : 2048, "type" : "VEC3", "max" : [0, 1, 0], "min" : [0, 1, 0], "name" : "NORMAL"}], "asset" : {"generator" : "Aspose.3D 25.2.0", "version" : "2.0"}, "buffers" : [{"uri" : "data:application/octet-stream;base64,", "byteLength" : 73712}], "bufferViews" : [{"buffer" : 0, "byteOffset" : 0, "byteLength" : 24552, "target" : 34963}, {"buffer" : 0, "byteOffset" : 24556, "byteLength" : 49152, "byteStride" : 24, "target" : 34962}], "meshes" : [{"primitives" : [{"attributes" : {"POSITION" : 1, "NORMAL" : 2}, "indices" : 0, "mode" : 4}], "name" : ""}], "nodes" : [{"mesh" : 0, "name" : ""}], "scene" : 0, "scenes" : [{"nodes" : [0]}]}