{
  "accessors": [
    {
      "bufferView": 2,
      "componentType": 5126,
      "count": 608,
      "max": [
        0.7713000178337097,
        0.2711000144481659,
        0.14079999923706055
      ],
      "min": [
        0.597000002861023,
        0.1509999930858612,
        -0.14079999923706055
      ],
      "type": "VEC3"
    },
    {
      "bufferView": 2,
      "byteOffset": 7296,
      "componentType": 5126,
      "count": 608,
      "max": [
        0.9062554240226746,
        0.998542308807373,
        1.0
      ],
      "min": [
        -0.9048219323158264,
        -1.0,
        -1.0
      ],
      "type": "VEC3"
    },
    {
      "bufferView": 1,
      "componentType": 5126,
      "count": 608,
      "max": [
        0.996999979019165,
        0.8059999942779541
      ],
      "min": [
        -0.9240000247955322,
        0.004999995231628418
      ],
      "type": "VEC2"
    },
    {
      "bufferView": 0,
      "componentType": 5125,
      "count": 1500,
      "type": "SCALAR"
    },
    {
      "bufferView": 2,
      "byteOffset": 14592,
      "componentType": 5126,
      "count": 128,
      "max": [
        -0.13040000200271606,
        0.031599998474121094,
        -0.26420000195503235
      ],
      "min": [
        -0.17569999396800995,
        0.017999999225139618,
        -0.3059999942779541
      ],
      "type": "VEC3"
    },
    {
      "bufferView": 2,
      "byteOffset": 16128,
      "componentType": 5126,
      "count": 128,
      "max": [
        0.9965186715126038,
        0.7817802429199219,
        0.9957514405250549
      ],
      "min": [
        -0.9934920072555542,
        -0.7769268751144409,
        -0.9909331202507019
      ],
      "type": "VEC3"
    },
    {
      "bufferView": 1,
      "byteOffset": 4864,
      "componentType": 5126,
      "count": 128,
      "max": [
        0.8090000152587891,
        0.45399999618530273
      ],
      "min": [
        -0.27000001072883606,
        0.4300000071525574
      ],
      "type": "VEC2"
    },
    {
      "bufferView": 0,
      "byteOffset": 6000,
      "componentType": 5125,
      "count": 288,
      "type": "SCALAR"
    },
    {
      "bufferView": 2,
      "byteOffset": 17664,
      "componentType": 5126,
      "count": 2663,
      "max": [
        0.16030000150203705,
        0.18070000410079956,
        0.2816999852657318
      ],
      "min": [
        -0.9365000128746033,
        -0.1843000054359436,
        -0.24420000612735748
      ],
      "type": "VEC3"
    },
    {
      "bufferView": 2,
      "byteOffset": 49620,
      "componentType": 5126,
      "count": 2663,
      "max": [
        0.9980480670928955,
        0.9997957348823547,
        0.9991909861564636
      ],
      "min": [
        -0.9999933838844299,
        -0.9997328519821167,
        -0.9996417760848999
      ],
      "type": "VEC3"
    },
    {
      "bufferView": 1,
      "byteOffset": 5888,
      "componentType": 5126,
      "count": 2663,
      "max": [
        0.9980000257492065,
        0.9959999918937683
      ],
      "min": [
        -0.996999979019165,
        0.003000020980834961
      ],
      "type": "VEC2"
    },
    {
      "bufferView": 0,
      "byteOffset": 7152,
      "componentType": 5125,
      "count": 10731,
      "type": "SCALAR"
    },
    {
      "bufferView": 2,
      "byteOffset": 81576,
      "componentType": 5126,
      "count": 522,
      "max": [
        -0.8977000117301941,
        0.16840000450611115,
        0.27639999985694885
      ],
      "min": [
        -1.0597000122070313,
        -0.19290000200271606,
        -0.2092999964952469
      ],
      "type": "VEC3"
    },
    {
      "bufferView": 2,
      "byteOffset": 87840,
      "componentType": 5126,
      "count": 522,
      "max": [
        0.99708092212677,
        0.987614095211029,
        0.9996815919876099
      ],
      "min": [
        -0.9999632239341736,
        -0.9874752759933472,
        -0.9998016357421875
      ],
      "type": "VEC3"
    },
    {
      "bufferView": 1,
      "byteOffset": 27192,
      "componentType": 5126,
      "count": 522,
      "max": [
        0.9950000047683716,
        0.9929999709129333
      ],
      "min": [
        0.004000000189989805,
        0.0059999823570251465
      ],
      "type": "VEC2"
    },
    {
      "bufferView": 0,
      "byteOffset": 50076,
      "componentType": 5125,
      "count": 1836,
      "type": "SCALAR"
    },
    {
      "bufferView": 2,
      "byteOffset": 94104,
      "componentType": 5126,
      "count": 3572,
      "max": [
        0.8282999992370605,
        0.3140999972820282,
        0.24009999632835388
      ],
      "min": [
        0.24300000071525574,
        -0.06350000202655792,
        -0.17229999601840973
      ],
      "type": "VEC3"
    },
    {
      "bufferView": 2,
      "byteOffset": 136968,
      "componentType": 5126,
      "count": 3572,
      "max": [
        0.9998886585235596,
        0.9989672899246216,
        1.0
      ],
      "min": [
        -0.9996447563171387,
        -0.9999698996543884,
        -1.0
      ],
      "type": "VEC3"
    },
    {
      "bufferView": 1,
      "byteOffset": 31368,
      "componentType": 5126,
      "count": 3572,
      "max": [
        7.6519999504089355,
        0.9990000128746033
      ],
      "min": [
        -6.8979997634887695,
        0.001999974250793457
      ],
      "type": "VEC2"
    },
    {
      "bufferView": 0,
      "byteOffset": 57420,
      "componentType": 5125,
      "count": 13647,
      "type": "SCALAR"
    },
    {
      "bufferView": 2,
      "byteOffset": 179832,
      "componentType": 5126,
      "count": 4055,
      "max": [
        0.6827999949455261,
        0.37720000743865967,
        0.2676999866962433
      ],
      "min": [
        -0.07699999958276749,
        -0.33899998664855957,
        -0.2676999866962433
      ],
      "type": "VEC3"
    },
    {
      "bufferView": 2,
      "byteOffset": 228492,
      "componentType": 5126,
      "count": 4055,
      "max": [
        0.999904215335846,
        0.999949038028717,
        1.0
      ],
      "min": [
        -0.9999966621398926,
        -0.9999767541885376,
        -1.0
      ],
      "type": "VEC3"
    },
    {
      "bufferView": 1,
      "byteOffset": 59944,
      "componentType": 5126,
      "count": 4055,
      "max": [
        1.996000051498413,
        1.3529999256134033
      ],
      "min": [
        -0.5519999861717224,
        0.004999995231628418
      ],
      "type": "VEC2"
    },
    {
      "bufferView": 0,
      "byteOffset": 112008,
      "componentType": 5125,
      "count": 12051,
      "type": "SCALAR"
    },
    {
      "bufferView": 2,
      "byteOffset": 277152,
      "componentType": 5126,
      "count": 2770,
      "max": [
        0.3138999938964844,
        0.5116000175476074,
        0.6430000066757202
      ],
      "min": [
        0.05299999937415123,
        0.22089999914169312,
        -0.6556000113487244
      ],
      "type": "VEC3"
    },
    {
      "bufferView": 2,
      "byteOffset": 310392,
      "componentType": 5126,
      "count": 2770,
      "max": [
        0.9897558093070984,
        0.9977414011955261,
        0.9997257590293884
      ],
      "min": [
        -0.9998937249183655,
        -0.9989327788352966,
        -0.9989805221557617
      ],
      "type": "VEC3"
    },
    {
      "bufferView": 1,
      "byteOffset": 92384,
      "componentType": 5126,
      "count": 2770,
      "max": [
        1.8220000267028809,
        1.0019999742507935
      ],
      "min": [
        0.004999999888241291,
        0.17599999904632568
      ],
      "type": "VEC2"
    },
    {
      "bufferView": 0,
      "byteOffset": 160212,
      "componentType": 5125,
      "count": 12084,
      "type": "SCALAR"
    },
    {
      "bufferView": 2,
      "byteOffset": 343632,
      "componentType": 5126,
      "count": 3657,
      "max": [
        0.5497999787330627,
        0.34880000352859497,
        0.2363000065088272
      ],
      "min": [
        -0.20440000295639038,
        -0.29499998688697815,
        -0.5860000252723694
      ],
      "type": "VEC3"
    },
    {
      "bufferView": 2,
      "byteOffset": 387516,
      "componentType": 5126,
      "count": 3657,
      "max": [
        0.9998582601547241,
        1.0,
        1.0
      ],
      "min": [
        -1.0,
        -1.0,
        -1.0
      ],
      "type": "VEC3"
    },
    {
      "bufferView": 1,
      "byteOffset": 114544,
      "componentType": 5126,
      "count": 3657,
      "max": [
        1.9980000257492065,
        0.9980000257492065
      ],
      "min": [
        0.0020000000949949026,
        0.003000020980834961
      ],
      "type": "VEC2"
    },
    {
      "bufferView": 0,
      "byteOffset": 208548,
      "componentType": 5125,
      "count": 9267,
      "type": "SCALAR"
    },
    {
      "bufferView": 2,
      "byteOffset": 431400,
      "componentType": 5126,
      "count": 7773,
      "max": [
        0.838699996471405,
        0.26930001378059387,
        0.16009999811649323
      ],
      "min": [
        0.4950999915599823,
        -0.07739999890327454,
        -0.15399999916553497
      ],
      "type": "VEC3"
    },
    {
      "bufferView": 2,
      "byteOffset": 524676,
      "componentType": 5126,
      "count": 7773,
      "max": [
        1.0,
        0.9999674558639526,
        1.0
      ],
      "min": [
        -1.0,
        -0.9999999403953552,
        -1.0
      ],
      "type": "VEC3"
    },
    {
      "bufferView": 1,
      "byteOffset": 143800,
      "componentType": 5126,
      "count": 7773,
      "max": [
        1.996000051498413,
        0.9990000128746033
      ],
      "min": [
        -0.5529999732971191,
        -0.7899999618530273
      ],
      "type": "VEC2"
    },
    {
      "bufferView": 0,
      "byteOffset": 245616,
      "componentType": 5125,
      "count": 24153,
      "type": "SCALAR"
    },
    {
      "bufferView": 2,
      "byteOffset": 617952,
      "componentType": 5126,
      "count": 6132,
      "max": [
        0.6014999747276306,
        0.32010000944137573,
        0.5954999923706055
      ],
      "min": [
        -0.23469999432563782,
        -0.1728000044822693,
        -0.6060000061988831
      ],
      "type": "VEC3"
    },
    {
      "bufferView": 2,
      "byteOffset": 691536,
      "componentType": 5126,
      "count": 6132,
      "max": [
        0.9999251961708069,
        0.9999918937683105,
        1.0
      ],
      "min": [
        -0.9997296333312988,
        -0.999951958656311,
        -1.0
      ],
      "type": "VEC3"
    },
    {
      "bufferView": 1,
      "byteOffset": 205984,
      "componentType": 5126,
      "count": 6132,
      "max": [
        1.9600000381469727,
        0.996999979019165
      ],
      "min": [
        -0.3449999988079071,
        -0.5369999408721924
      ],
      "type": "VEC2"
    },
    {
      "bufferView": 0,
      "byteOffset": 342228,
      "componentType": 5125,
      "count": 19947,
      "type": "SCALAR"
    },
    {
      "bufferView": 2,
      "byteOffset": 765120,
      "componentType": 5126,
      "count": 237,
      "max": [
        0.733299970626831,
        0.2768999934196472,
        0.1200999990105629
      ],
      "min": [
        0.5558000206947327,
        0.19439999759197235,
        -0.11969999969005585
      ],
      "type": "VEC3"
    },
    {
      "bufferView": 2,
      "byteOffset": 767964,
      "componentType": 5126,
      "count": 237,
      "max": [
        0.35546866059303284,
        0.9999707937240601,
        0.8802881240844727
      ],
      "min": [
        -0.6166052222251892,
        0.4705016314983368,
        -0.8802880048751831
      ],
      "type": "VEC3"
    },
    {
      "bufferView": 1,
      "byteOffset": 255040,
      "componentType": 5126,
      "count": 237,
      "max": [
        0.753000020980835,
        0.9929999709129333
      ],
      "min": [
        0.006000000052154064,
        0.5049999952316284
      ],
      "type": "VEC2"
    },
    {
      "bufferView": 0,
      "byteOffset": 422016,
      "componentType": 5125,
      "count": 1236,
      "type": "SCALAR"
    },
    {
      "bufferView": 2,
      "byteOffset": 770808,
      "componentType": 5126,
      "count": 32,
      "max": [
        0.45410001277923584,
        -0.1404000073671341,
        0.18940000236034393
      ],
      "min": [
        0.44940000772476196,
        -0.14509999752044678,
        -0.18940000236034393
      ],
      "type": "VEC3"
    },
    {
      "bufferView": 2,
      "byteOffset": 771192,
      "componentType": 5126,
      "count": 32,
      "max": [
        0.9205792546272278,
        0.9205828309059143,
        0.0
      ],
      "min": [
        -0.9205822348594666,
        -0.9205816388130188,
        0.0
      ],
      "type": "VEC3"
    },
    {
      "bufferView": 1,
      "byteOffset": 256936,
      "componentType": 5126,
      "count": 32,
      "max": [
        0.7609999775886536,
        0.44300001859664917
      ],
      "min": [
        0.7609999775886536,
        0.44300001859664917
      ],
      "type": "VEC2"
    },
    {
      "bufferView": 0,
      "byteOffset": 426960,
      "componentType": 5125,
      "count": 48,
      "type": "SCALAR"
    }
  ],
  "asset": {
    "extras": {
      "author": "Prismxd oficial yt (https://sketchfab.com/Prissxd)",
      "license": "CC-BY-4.0 (http://creativecommons.org/licenses/by/4.0/)",
      "source": "https://sketchfab.com/3d-models/astronauta-astronaut-codm-call-of-duty-4d0791a91719454ab391bd13f91c9463",
      "title": "astronauta-astronaut codm (call of duty)"
    },
    "generator": "Sketchfab-16.59.0",
    "version": "2.0"
  },
  "bufferViews": [
    {
      "buffer": 0,
      "byteLength": 427152,
      "name": "floatBufferViews",
      "target": 34963
    },
    {
      "buffer": 0,
      "byteLength": 257192,
      "byteOffset": 427152,
      "byteStride": 8,
      "name": "floatBufferViews",
      "target": 34962
    },
    {
      "buffer": 0,
      "byteLength": 771576,
      "byteOffset": 684344,
      "byteStride": 12,
      "name": "floatBufferViews",
      "target": 34962
    }
  ],
  "buffers": [
    {
      "byteLength": 1455920,
      "uri": "scene.bin"
    }
  ],
  "images": [
    {
      "uri": "textures/Material9_baseColor.png"
    },
    {
      "uri": "textures/Material10_baseColor.png"
    },
    {
      "uri": "textures/Material8_baseColor.png"
    },
    {
      "uri": "textures/Material11_baseColor.png"
    },
    {
      "uri": "textures/Material2_baseColor.png"
    },
    {
      "uri": "textures/Material5_baseColor.png"
    },
    {
      "uri": "textures/Material0_baseColor.png"
    },
    {
      "uri": "textures/Material3_baseColor.png"
    }
  ],
  "materials": [
    {
      "doubleSided": true,
      "name": "Material7",
      "pbrMetallicRoughness": {
        "metallicFactor": 0.0,
        "roughnessFactor": 0.25
      }
    },
    {
      "doubleSided": true,
      "name": "Material1",
      "pbrMetallicRoughness": {
        "metallicFactor": 0.0,
        "roughnessFactor": 0.25
      }
    },
    {
      "doubleSided": true,
      "name": "Material9",
      "pbrMetallicRoughness": {
        "baseColorTexture": {
          "index": 0
        },
        "metallicFactor": 0.0,
        "roughnessFactor": 0.25
      }
    },
    {
      "doubleSided": true,
      "name": "Material10",
      "pbrMetallicRoughness": {
        "baseColorTexture": {
          "index": 1
        },
        "metallicFactor": 0.0,
        "roughnessFactor": 0.25
      }
    },
    {
      "doubleSided": true,
      "name": "Material6",
      "pbrMetallicRoughness": {
        "metallicFactor": 0.0,
        "roughnessFactor": 0.25
      }
    },
    {
      "doubleSided": true,
      "name": "Material8",
      "pbrMetallicRoughness": {
        "baseColorTexture": {
          "index": 2
        },
        "metallicFactor": 0.0,
        "roughnessFactor": 0.25
      }
    },
    {
      "doubleSided": true,
      "name": "Material11",
      "pbrMetallicRoughness": {
        "baseColorTexture": {
          "index": 3
        },
        "metallicFactor": 0.0,
        "roughnessFactor": 0.25
      }
    },
    {
      "doubleSided": true,
      "name": "Material2",
      "pbrMetallicRoughness": {
        "baseColorTexture": {
          "index": 4
        },
        "metallicFactor": 0.0,
        "roughnessFactor": 0.25
      }
    },
    {
      "doubleSided": true,
      "name": "Material5",
      "pbrMetallicRoughness": {
        "baseColorTexture": {
          "index": 5
        },
        "metallicFactor": 0.0,
        "roughnessFactor": 0.25
      }
    },
    {
      "doubleSided": true,
      "name": "Material0",
      "pbrMetallicRoughness": {
        "baseColorTexture": {
          "index": 6
        },
        "metallicFactor": 0.0,
        "roughnessFactor": 0.25
      }
    },
    {
      "doubleSided": true,
      "name": "Material3",
      "pbrMetallicRoughness": {
        "baseColorTexture": {
          "index": 7
        },
        "metallicFactor": 0.0,
        "roughnessFactor": 0.25
      }
    },
    {
      "doubleSided": true,
      "name": "Material4",
      "pbrMetallicRoughness": {
        "metallicFactor": 0.0,
        "roughnessFactor": 0.25
      }
    }
  ],
  "meshes": [
    {
      "name": "Object_0",
      "primitives": [
        {
          "attributes": {
            "NORMAL": 1,
            "POSITION": 0,
            "TEXCOORD_0": 2
          },
          "indices": 3,
          "material": 0,
          "mode": 4
        }
      ]
    },
    {
      "name": "Object_1",
      "primitives": [
        {
          "attributes": {
            "NORMAL": 5,
            "POSITION": 4,
            "TEXCOORD_0": 6
          },
          "indices": 7,
          "material": 1,
          "mode": 4
        }
      ]
    },
    {
      "name": "Object_2",
      "primitives": [
        {
          "attributes": {
            "NORMAL": 9,
            "POSITION": 8,
            "TEXCOORD_0": 10
          },
          "indices": 11,
          "material": 2,
          "mode": 4
        }
      ]
    },
    {
      "name": "Object_3",
      "primitives": [
        {
          "attributes": {
            "NORMAL": 13,
            "POSITION": 12,
            "TEXCOORD_0": 14
          },
          "indices": 15,
          "material": 3,
          "mode": 4
        }
      ]
    },
    {
      "name": "Object_4",
      "primitives": [
        {
          "attributes": {
            "NORMAL": 17,
            "POSITION": 16,
            "TEXCOORD_0": 18
          },
          "indices": 19,
          "material": 4,
          "mode": 4
        }
      ]
    },
    {
      "name": "Object_5",
      "primitives": [
        {
          "attributes": {
            "NORMAL": 21,
            "POSITION": 20,
            "TEXCOORD_0": 22
          },
          "indices": 23,
          "material": 5,
          "mode": 4
        }
      ]
    },
    {
      "name": "Object_6",
      "primitives": [
        {
          "attributes": {
            "NORMAL": 25,
            "POSITION": 24,
            "TEXCOORD_0": 26
          },
          "indices": 27,
          "material": 6,
          "mode": 4
        }
      ]
    },
    {
      "name": "Object_7",
      "primitives": [
        {
          "attributes": {
            "NORMAL": 29,
            "POSITION": 28,
            "TEXCOORD_0": 30
          },
          "indices": 31,
          "material": 7,
          "mode": 4
        }
      ]
    },
    {
      "name": "Object_8",
      "primitives": [
        {
          "attributes": {
            "NORMAL": 33,
            "POSITION": 32,
            "TEXCOORD_0": 34
          },
          "indices": 35,
          "material": 8,
          "mode": 4
        }
      ]
    },
    {
      "name": "Object_9",
      "primitives": [
        {
          "attributes": {
            "NORMAL": 37,
            "POSITION": 36,
            "TEXCOORD_0": 38
          },
          "indices": 39,
          "material": 9,
          "mode": 4
        }
      ]
    },
    {
      "name": "Object_10",
      "primitives": [
        {
          "attributes": {
            "NORMAL": 41,
            "POSITION": 40,
            "TEXCOORD_0": 42
          },
          "indices": 43,
          "material": 10,
          "mode": 4
        }
      ]
    },
    {
      "name": "Object_11",
      "primitives": [
        {
          "attributes": {
            "NORMAL": 45,
            "POSITION": 44,
            "TEXCOORD_0": 46
          },
          "indices": 47,
          "material": 11,
          "mode": 4
        }
      ]
    }
  ],
  "nodes": [
    {
      "children": [
        1
      ],
      "matrix": [
        2.220446049250313e-16,
        1.0,
        2.220446049250313e-16,
        0.0,
        -1.6081226229577292e-16,
        2.220446049250313e-16,
        -1.0,
        0.0,
        -1.0,
        2.2204460492503128e-16,
        1.6081226229577296e-16,
        0.0,
        0.0,
        0.0,
        0.0,
        1.0
      ],
      "name": "Sketchfab_model"
    },
    {
      "children": [
        2
      ],
      "name": "root"
    },
    {
      "children": [
        3,
        5,
        7,
        9,
        11,
        13,
        15,
        17,
        19,
        21,
        23,
        25
      ],
      "matrix": [
        1.0,
        0.0,
        0.0,
        0.0,
        0.0,
        2.220446049250313e-16,
        1.0,
        0.0,
        0.0,
        -1.0,
        2.220446049250313e-16,
        0.0,
        0.0,
        0.0,
        0.0,
        1.0
      ],
      "name": "GLTF_SceneRootNode"
    },
    {
      "children": [
        4
      ],
      "name": "male_0"
    },
    {
      "mesh": 0,
      "name": "Object_4"
    },
    {
      "children": [
        6
      ],
      "name": "male 2_1"
    },
    {
      "mesh": 1,
      "name": "Object_6"
    },
    {
      "children": [
        8
      ],
      "name": "male 3_2"
    },
    {
      "mesh": 2,
      "name": "Object_8"
    },
    {
      "children": [
        10
      ],
      "name": "male 4_3"
    },
    {
      "mesh": 3,
      "name": "Object_10"
    },
    {
      "children": [
        12
      ],
      "name": "male 5_4"
    },
    {
      "mesh": 4,
      "name": "Object_12"
    },
    {
      "children": [
        14
      ],
      "name": "male 6_5"
    },
    {
      "mesh": 5,
      "name": "Object_14"
    },
    {
      "children": [
        16
      ],
      "name": "male 7_6"
    },
    {
      "mesh": 6,
      "name": "Object_16"
    },
    {
      "children": [
        18
      ],
      "name": "male 8_7"
    },
    {
      "mesh": 7,
      "name": "Object_18"
    },
    {
      "children": [
        20
      ],
      "name": "male 9_8"
    },
    {
      "mesh": 8,
      "name": "Object_20"
    },
    {
      "children": [
        22
      ],
      "name": "male 10_9"
    },
    {
      "mesh": 9,
      "name": "Object_22"
    },
    {
      "children": [
        24
      ],
      "name": "male 11_10"
    },
    {
      "mesh": 10,
      "name": "Object_24"
    },
    {
      "children": [
        26
      ],
      "name": "male 1_11"
    },
    {
      "mesh": 11,
      "name": "Object_26"
    }
  ],
  "samplers": [
    {
      "magFilter": 9729,
      "minFilter": 9987,
      "wrapS": 10497,
      "wrapT": 10497
    }
  ],
  "scene": 0,
  "scenes": [
    {
      "name": "Sketchfab_Scene",
      "nodes": [
        0
      ]
    }
  ],
  "textures": [
    {
      "sampler": 0,
      "source": 0
    },
    {
      "sampler": 0,
      "source": 1
    },
    {
      "sampler": 0,
      "source": 2
    },
    {
      "sampler": 0,
      "source": 3
    },
    {
      "sampler": 0,
      "source": 4
    },
    {
      "sampler": 0,
      "source": 5
    },
    {
      "sampler": 0,
      "source": 6
    },
    {
      "sampler": 0,
      "source": 7
    }
  ]
}
